<svg xmlns="http://www.w3.org/2000/svg" width="33.003" height="16.501" viewBox="0 0 33.003 16.501">
  <path id="_5578585971547464126" data-name="5578585971547464126" d="M28.052,99.3v3.3H29.7v3.3h-1.65v3.3H3.3V99.3H28.052m.825-3.3H2.475A2.475,2.475,0,0,0,0,98.475v11.551A2.475,2.475,0,0,0,2.475,112.5h26.4a2.475,2.475,0,0,0,2.475-2.475V109.2h.413A1.238,1.238,0,0,0,33,107.964v-7.426A1.238,1.238,0,0,0,31.765,99.3h-.413v-.825A2.475,2.475,0,0,0,28.878,96ZM16.5,100.95H4.95v6.6H16.5Z" transform="translate(0 -96)" fill="#afafaf"/>
</svg>
