<svg xmlns="http://www.w3.org/2000/svg" width="26.033" height="28" viewBox="0 0 26.033 28">
  <g id="_19903299871596026813_2_" data-name="19903299871596026813 (2)" transform="translate(-2.985 -2)">
    <path id="Path_3" data-name="Path 3" d="M27.8,23.2l-1.1-1.7A16.88,16.88,0,0,1,23.8,12a7.86,7.86,0,0,0-5.6-7.5,2.363,2.363,0,0,0-4.4,0A7.86,7.86,0,0,0,8.2,12a16.88,16.88,0,0,1-2.9,9.5L4.2,23.2a1.15,1.15,0,0,0,1,1.8H26.8A1.15,1.15,0,0,0,27.8,23.2Z" fill="none" stroke="#e58172" stroke-linecap="round" stroke-linejoin="round" stroke-width="2"/>
    <path id="Path_4" data-name="Path 4" d="M20,25a4,4,0,0,1-8,0" fill="none" stroke="#e58172" stroke-linecap="round" stroke-linejoin="round" stroke-width="2"/>
  </g>
</svg>
