<svg id="_9311412861606062171" data-name="9311412861606062171" xmlns="http://www.w3.org/2000/svg" xmlns:xlink="http://www.w3.org/1999/xlink" width="51.089" height="51.089" viewBox="0 0 51.089 51.089">
  <defs>
    <clipPath id="clip-path">
      <path id="Path_11" data-name="Path 11" d="M25.544,0A25.544,25.544,0,1,1,0,25.544,25.517,25.517,0,0,1,25.544,0Z"/>
    </clipPath>
  </defs>
  <g id="Group_5" data-name="Group 5">
    <g id="Group_4" data-name="Group 4">
      <path id="Path_9" data-name="Path 9" d="M25.544,0A25.544,25.544,0,1,1,0,25.544,25.517,25.517,0,0,1,25.544,0Z" fill="#5093ff"/>
    </g>
  </g>
  <g id="Group_28" data-name="Group 28">
    <g id="Group_7" data-name="Group 7" clip-path="url(#clip-path)">
      <g id="Group_6" data-name="Group 6" transform="translate(10.377 37.518)">
        <path id="Path_10" data-name="Path 10" d="M13,60.57C13,53.147,19.785,47,28.167,47h0c8.3,0,15.167,6.147,15.167,13.57" transform="translate(-13 -47)" fill="#316cff"/>
      </g>
    </g>
    <g id="Group_9" data-name="Group 9" clip-path="url(#clip-path)">
      <g id="Group_8" data-name="Group 8" transform="translate(20.755 35.123)">
        <ellipse id="Ellipse_10" data-name="Ellipse 10" cx="4.5" cy="5" rx="4.5" ry="5" transform="translate(0.245 -0.123)" fill="#fff"/>
      </g>
    </g>
    <g id="Group_11" data-name="Group 11" clip-path="url(#clip-path)">
      <g id="Group_10" data-name="Group 10" transform="translate(22.271 36.161)">
        <path id="Path_13" data-name="Path 13" d="M34.446,45.3v3.672a3.287,3.287,0,0,1-3.273,3.273,3.4,3.4,0,0,1-2.315-.958,3.556,3.556,0,0,1-.958-2.315V45.3h6.546Z" transform="translate(-27.9 -45.3)" fill="#f7be8f"/>
      </g>
    </g>
    <g id="Group_13" data-name="Group 13" clip-path="url(#clip-path)">
      <g id="Group_12" data-name="Group 12" transform="translate(15.965 18.36)">
        <path id="Path_15" data-name="Path 15" d="M33.012,43.2a10.822,10.822,0,0,1-6.865,0l-1.357-.639a9.151,9.151,0,0,1-4.71-6.546A7.3,7.3,0,0,1,20,34.734V23H39.158V34.734a6.867,6.867,0,0,1-.08,1.277,8.117,8.117,0,0,1-1.2,3.273,8.714,8.714,0,0,1-3.512,3.273C33.89,42.8,33.491,42.956,33.012,43.2Z" transform="translate(-20 -23)" fill="#fad3a1"/>
      </g>
    </g>
    <g id="Group_15" data-name="Group 15" clip-path="url(#clip-path)">
      <g id="Group_14" data-name="Group 14" transform="translate(19.956 25.544)">
        <path id="Path_17" data-name="Path 17" d="M26.2,32A1.2,1.2,0,1,1,25,33.2,1.228,1.228,0,0,1,26.2,32Z" transform="translate(-25 -32)" fill="#262647"/>
      </g>
    </g>
    <g id="Group_17" data-name="Group 17" clip-path="url(#clip-path)">
      <g id="Group_16" data-name="Group 16" transform="translate(28.737 25.544)">
        <path id="Path_19" data-name="Path 19" d="M36,33.2a1.2,1.2,0,1,1,1.2,1.2A1.228,1.228,0,0,1,36,33.2Z" transform="translate(-36 -32)" fill="#262647"/>
      </g>
    </g>
    <g id="Group_19" data-name="Group 19" clip-path="url(#clip-path)">
      <g id="Group_18" data-name="Group 18" transform="translate(24.746 31.132)">
        <path id="Path_21" data-name="Path 21" d="M32.6,39A.8.8,0,0,1,31,39Z" transform="translate(-31 -39)" fill="#f7be8f"/>
      </g>
    </g>
    <g id="Group_21" data-name="Group 21" clip-path="url(#clip-path)">
      <g id="Group_20" data-name="Group 20" transform="translate(22.383 33.16)">
        <path id="Path_23" data-name="Path 23" d="M31.2,43.9a3.726,3.726,0,0,1-3.113-1.756c-.08-.239-.08-.479.16-.559a.421.421,0,0,1,.559.16,2.714,2.714,0,0,0,4.79,0,.411.411,0,0,1,.718.4A3.726,3.726,0,0,1,31.2,43.9Z" transform="translate(-28.04 -41.54)" fill="#f4b28e"/>
      </g>
    </g>
    <g id="Group_23" data-name="Group 23" clip-path="url(#clip-path)">
      <g id="Group_22" data-name="Group 22" transform="translate(14.369 9.576)">
        <path id="Path_25" data-name="Path 25" d="M40.351,23.175v5.588h-1.6V24.452L34.444,21.1a8.949,8.949,0,0,1-8.222,5.428A9.42,9.42,0,0,1,19.6,23.814v4.949H18V21.978a8.707,8.707,0,0,1,2.155-5.987A11.022,11.022,0,0,1,28.377,12c2.475.08,4.311.878,7.184,0a2.369,2.369,0,0,1,.239,1.756,10.372,10.372,0,0,1-.239,1.2h0C38.356,17.028,40.351,19.343,40.351,23.175Z" transform="translate(-18 -11.997)" fill="#262647"/>
      </g>
    </g>
    <g id="Group_25" data-name="Group 25" clip-path="url(#clip-path)">
      <g id="Group_24" data-name="Group 24" transform="translate(13.57 24.746)">
        <path id="Path_27" data-name="Path 27" d="M19.395,35.79A2.352,2.352,0,0,1,17,33.395a2.174,2.174,0,0,1,.718-1.676A2.489,2.489,0,0,1,19.395,31Z" transform="translate(-17 -31)" fill="#f7be8f"/>
      </g>
    </g>
    <g id="Group_27" data-name="Group 27" clip-path="url(#clip-path)">
      <g id="Group_26" data-name="Group 26" transform="translate(35.123 24.746)">
        <path id="Path_29" data-name="Path 29" d="M44,35.79a2.352,2.352,0,0,0,2.395-2.395A2.455,2.455,0,0,0,44,31Z" transform="translate(-44 -31)" fill="#f7be8f"/>
      </g>
    </g>
  </g>
</svg>
