<svg xmlns="http://www.w3.org/2000/svg" width="28" height="28" viewBox="0 0 28 28">
  <g id="Contacts" transform="translate(-2 -2)">
    <path id="Path_76" data-name="Path 76" d="M14,14a3,3,0,1,0-3-3,3,3,0,0,0,3,3Zm0-4a1,1,0,1,1-1,1A1,1,0,0,1,14,10Z" fill="#b5b5b5"/>
    <path id="Path_77" data-name="Path 77" d="M29,17a1,1,0,0,0,0-2H26V10h3a1,1,0,0,0,0-2H26V7a5,5,0,0,0-5-5H7A5,5,0,0,0,2,7V25a5,5,0,0,0,5,5H21a5,5,0,0,0,5-5V24h3a1,1,0,0,0,0-2H26V17Zm-5,8a3,3,0,0,1-3,3H7a3,3,0,0,1-3-3V7A3,3,0,0,1,7,4H21a3,3,0,0,1,3,3Z" fill="#b5b5b5"/>
    <path id="Path_78" data-name="Path 78" d="M15,15H13a5,5,0,0,0-5,5v1a3,3,0,0,0,3,3h6a3,3,0,0,0,3-3V20A5,5,0,0,0,15,15Zm3,6a1,1,0,0,1-1,1H11a1,1,0,0,1-1-1V20a3,3,0,0,1,3-3h2a3,3,0,0,1,3,3Z" fill="#b5b5b5"/>
  </g>
</svg>
