<svg xmlns="http://www.w3.org/2000/svg" width="26.5" height="28.74" viewBox="0 0 26.5 28.74">
  <g id="_117604957416310162294008" data-name="117604957416310162294008" transform="translate(-5.26 -3)">
    <path id="Path_31" data-name="Path 31" d="M30.567,22.324a7.928,7.928,0,0,0-15.777,0l-1.264,11.1a.495.495,0,0,0,.491.555H31.36a.495.495,0,0,0,.491-.555Z" transform="translate(-4.168 -6.149)" fill="#b72026"/>
    <path id="Path_32" data-name="Path 32" d="M31.5,3a.5.5,0,0,0-.5.5V5.973a.5.5,0,0,0,.991,0V3.5a.5.5,0,0,0-.5-.5Z" transform="translate(-12.986)" fill="#b72026"/>
    <path id="Path_33" data-name="Path 33" d="M47.544,10.682l-1.769,1.769a.5.5,0,0,0,.7.7l1.769-1.764a.5.5,0,1,0-.7-.7Z" transform="translate(-20.368 -3.802)" fill="#b72026"/>
    <path id="Path_34" data-name="Path 34" d="M54.688,28.74h-2.5a.5.5,0,0,0,0,.991h2.5a.5.5,0,0,0,0-.991Z" transform="translate(-23.423 -12.986)" fill="#b72026"/>
    <path id="Path_35" data-name="Path 35" d="M8.258,28.74h-2.5a.5.5,0,0,0,0,.991h2.5a.5.5,0,0,0,0-.991Z" transform="translate(0 -12.986)" fill="#b72026"/>
    <path id="Path_36" data-name="Path 36" d="M13.645,10.682a.5.5,0,1,0-.7.7l1.769,1.764a.5.5,0,0,0,.7-.7Z" transform="translate(-3.802 -3.802)" fill="#b72026"/>
    <path id="Path_37" data-name="Path 37" d="M31.433,29.61a3.964,3.964,0,0,0-3.469,2.056A3.964,3.964,0,0,0,24.5,29.61a.5.5,0,0,0-.5.5v6.937a.5.5,0,0,0,.5.5,3.964,3.964,0,0,0,2.973-1.358v4.574a.5.5,0,0,0,.991,0V36.205a3.964,3.964,0,0,0,2.973,1.358.5.5,0,0,0,.5-.5V30.13a.5.5,0,0,0-.5-.52Z" transform="translate(-9.454 -13.424)" fill="#f8f8f8"/>
    <path id="Path_38" data-name="Path 38" d="M27.363,51.1H11.1a4.415,4.415,0,0,0-4.41,4.41.5.5,0,0,0,.5.5H31.277a.5.5,0,0,0,.5-.5,4.415,4.415,0,0,0-4.41-4.41Z" transform="translate(-0.722 -24.266)" fill="#07485e"/>
  </g>
</svg>
