<svg xmlns="http://www.w3.org/2000/svg" width="34.178" height="25.489" viewBox="0 0 34.178 25.489">
  <g id="_16277906831582823580" data-name="16277906831582823580" transform="translate(-0.861 -16.919)">
    <path id="Path_43" data-name="Path 43" d="M48.012,16.919h-26.5a1.208,1.208,0,0,0-1.209,1.209v0a2.349,2.349,0,0,1,.254.223,2.423,2.423,0,0,1,.245.282l.055.082L22.392,21.1l.331.229,11.323,8.342a1.2,1.2,0,0,0,1.431,0L46.8,21.335V34.589H35.613l3.2,2.063a2.416,2.416,0,0,1,.391.354h8.805A1.208,1.208,0,0,0,49.221,35.8V18.127a1.208,1.208,0,0,0-1.208-1.209ZM34.759,27.2l-10.673-7.86H45.44Z" transform="translate(-14.182 0)" fill="#b5b5b5"/>
    <path id="Path_44" data-name="Path 44" d="M23.693,44.158,18.41,40.766a.94.94,0,0,0-1.338.228c-.384.567-1.214,1.745-1.365,1.959-.275.114-2.438.844-6.051-2.769-.033-.033-.061-.064-.091-.095l-.078-.083-.08-.075c-.031-.029-.062-.058-.095-.091-3.615-3.615-2.883-5.78-2.77-6.051.214-.151,1.393-.981,1.959-1.365a.94.94,0,0,0,.234-1.33L5.338,25.8a.814.814,0,0,0-.083-.1.846.846,0,0,0-1.175-.023,20.211,20.211,0,0,0-2.689,2.911,5.646,5.646,0,0,0-.237,4.19,23.878,23.878,0,0,0,5.766,9.36c.041.041.083.08.125.118.069.063.131.125.188.188.038.042.077.083.118.125a23.877,23.877,0,0,0,9.36,5.766A5.646,5.646,0,0,0,20.9,48.1a20.215,20.215,0,0,0,2.911-2.689.846.846,0,0,0-.12-1.258Z" transform="translate(0 -6.228)" fill="#b5b5b5"/>
  </g>
</svg>
