<svg xmlns="http://www.w3.org/2000/svg" width="26.046" height="20.389" viewBox="0 0 26.046 20.389">
  <g id="_14328520221582985695" data-name="14328520221582985695" transform="translate(-2.821 -16.108)">
    <path id="Path_39" data-name="Path 39" d="M28.467,22.509l-.082-.059L16.942,16.43a2.034,2.034,0,0,0-2.2,0L3.3,22.45l-.082.059a.926.926,0,1,0,1.054,1.523l2.274-1.2V35.014A1.485,1.485,0,0,0,8.033,36.5H23.654a1.485,1.485,0,0,0,1.485-1.483V22.835l2.275,1.2a.926.926,0,1,0,1.054-1.523ZM23.287,34.645H8.4V21.861l7.246-3.812L15.736,18a.187.187,0,0,1,.216,0l.043.029,7.292,3.836Z" fill="#b5b5b5"/>
    <path id="Path_40" data-name="Path 40" d="M47.383,50.215V54.14a2.685,2.685,0,0,0,.734,1.853,10.385,10.385,0,0,0,2.637,2.026l.165.089.165-.089a10.358,10.358,0,0,0,2.639-2.026,2.685,2.685,0,0,0,.734-1.853V50.215l-3.538-.776Z" transform="translate(-35.076 -26.236)" fill="#b5b5b5"/>
  </g>
</svg>
