<svg xmlns="http://www.w3.org/2000/svg" width="52.523" height="41.116" viewBox="0 0 52.523 41.116">
  <g id="_14328520221582985695" data-name="14328520221582985695" transform="translate(-2.821 -16.108)">
    <path id="Path_39" data-name="Path 39" d="M54.538,29.016l-.165-.118L31.3,16.757a4.1,4.1,0,0,0-4.429,0L3.791,28.9l-.165.118a1.868,1.868,0,1,0,2.125,3.072l4.587-2.413V54.234a3,3,0,0,0,2.994,2.99h31.5a3,3,0,0,0,2.994-2.99V29.674l4.587,2.413a1.868,1.868,0,1,0,2.125-3.072ZM44.091,53.488H14.074V27.709l14.612-7.688.178-.107a.377.377,0,0,1,.436,0l.086.058,14.7,7.736Z" transform="translate(0 0)" fill="#2d3e50"/>
    <path id="Path_40" data-name="Path 40" d="M47.383,51v7.916a5.414,5.414,0,0,0,1.48,3.736,20.942,20.942,0,0,0,5.318,4.086l.333.179.333-.179a20.888,20.888,0,0,0,5.323-4.086,5.414,5.414,0,0,0,1.48-3.736V51l-7.135-1.565Z" transform="translate(-25.433 -19.023)" fill="#1d75b8"/>
  </g>
</svg>
