<svg xmlns="http://www.w3.org/2000/svg" width="49" height="49" viewBox="0 0 49 49">
  <g id="_6699392491598811070" data-name="6699392491598811070" transform="translate(-6.089 -6.236)">
    <circle id="XMLID_8252_" cx="24.5" cy="24.5" r="24.5" transform="translate(6.089 6.236)" fill="#c1e8f7"/>
    <g id="XMLID_6625_" transform="translate(14.466 15.929)">
      <path id="XMLID_6645_" d="M294.536,223.859c-.359-.257-.346,3.374-1.835,4.811q-.16.155-.327.3c-.088.077-.182.147-.272.22a6.174,6.174,0,0,0,.53,2.64,2.96,2.96,0,0,1,1.55,1.517,1.406,1.406,0,0,0,.158.073l.26.1c0-.016.007-.039.008-.053l.553.18c0,.021-.009.053-.012.078l.777.288c-.4-1.9-.175-6.806-.217-10.734l-.133.028C295.324,223.823,294.972,224.152,294.536,223.859Z" transform="translate(-272.165 -211.931)" fill="#906a5d"/>
      <path id="XMLID_6644_" d="M184.063,233.646l.553-.18c0,.012.005.031.007.044l.235-.089a1.388,1.388,0,0,0,.147-.067,2.957,2.957,0,0,1,1.566-1.528,6.165,6.165,0,0,0,.527-2.621c-.211-.169-.415-.347-.609-.535-1.488-1.437-1.475-5.068-1.835-4.811-.437.294-.79-.037-1.04-.555l-.12-.025c-.042,3.926.183,8.828-.216,10.732l.8-.3C184.071,233.693,184.066,233.665,184.063,233.646Z" transform="translate(-174.114 -211.931)" fill="#906a5d"/>
      <path id="XMLID_6643_" d="M257.571,406.27c0-.031,0-.048,0-.048.009-.015.022-.04.033-.061l-.045.061-.033-.031Z" transform="translate(-241.012 -376.709)" fill="#f4ccaf"/>
      <path id="XMLID_6642_" d="M212.613,286.119a2.676,2.676,0,0,0,.312,2.482c.758.961,1.928,2.713,2.492,3.628h0c.027.042.053.087.079.13l.035.057.052.089c.07.12.118.208.141.26.628,1.214,1.21,2.5,1.21,2.5a17.372,17.372,0,0,1,1.025-2.5c.023-.052.071-.14.141-.26l.052-.089.035-.057c.026-.044.052-.088.079-.13h0c.564-.915,1.733-2.667,2.492-3.628a2.676,2.676,0,0,0,.312-2.482l-.279-.5c.02.007.042.018.063.026a6.174,6.174,0,0,1-.53-2.64,6.9,6.9,0,0,1-.842.6,5.4,5.4,0,0,1-1.073.484,5.107,5.107,0,0,1-1.048.217,5.223,5.223,0,0,1-1.334-.038,5.055,5.055,0,0,1-1.053-.287,5.751,5.751,0,0,1-1.083-.572c-.18-.12-.351-.251-.52-.387a6.165,6.165,0,0,1-.527,2.621c.016-.006.033-.015.048-.02Z" transform="translate(-200.387 -265.749)" fill="#f4ccaf"/>
      <path id="XMLID_6641_" d="M134.2,345.915c-.526-.755-1.46-2.717-3.2-7.825-.52-1.527-1.021-3.071-1.455-4.465a2.076,2.076,0,0,1-.774.416c-.459.063-.344-1.846-.128-3.452a18.974,18.974,0,0,1-.459-1.89l-.8.3c-1.906.707-4.909,1.827-6.141,2.377,1.078.078,2.008,2.531,2.548,3.927.47,1.215.628,5.923.666,8.753a24.592,24.592,0,0,0,8.082,2.08v-.216Z" transform="translate(-118.224 -306.916)" fill="#0e789c"/>
      <path id="XMLID_6640_" d="M214.99,375.784c-.123-.114-.609-.577-1.394-1.47a5.184,5.184,0,0,0-1.089-1.015s-.482-.067.047-.316l.341-.154a2.58,2.58,0,0,0-2.578-.137c1.5,4.8,3.823,11.406,4.632,12.353a1.6,1.6,0,0,0,.1-.138c-.005-4.542-.013-8.568-.014-9.044Z" transform="translate(-198.477 -346.302)" fill="#0e789c"/>
      <path id="XMLID_6639_" d="M197.014,325.9c.043-.211.083-.388.119-.516a2.646,2.646,0,0,1,.121-.33,1.383,1.383,0,0,1-.147.067l-.235.089C196.895,325.368,196.943,325.6,197.014,325.9Z" transform="translate(-186.364 -303.63)" fill="#0e789c"/>
      <path id="XMLID_6638_" d="M275.049,331.45c-1.237-.551-4.225-1.665-6.126-2.37l-.777-.288a20.1,20.1,0,0,1-.482,1.968c.209,1.586.31,3.426-.14,3.364a1.967,1.967,0,0,1-.745-.4c-.432,1.389-.931,2.925-1.449,4.445-1.739,5.108-2.672,7.07-3.2,7.825h1.933v.18a24.576,24.576,0,0,0,7.664-2.071c.039-2.833.2-7.514.666-8.725C272.954,333.94,273.926,331.367,275.049,331.45Z" transform="translate(-245.163 -306.999)" fill="#216988"/>
      <path id="XMLID_6637_" d="M313.367,325.935c.081-.332.135-.589.159-.763l-.26-.1a1.417,1.417,0,0,1-.158-.073,2.654,2.654,0,0,1,.123.336C313.272,325.479,313.319,325.687,313.367,325.935Z" transform="translate(-291.092 -303.583)" fill="#216988"/>
      <path id="XMLID_6636_" d="M257.981,375.863c0,.475.009,4.5.014,9.044.886-1.315,3.083-7.586,4.527-12.2a2.574,2.574,0,0,0-2.609.121l.341.154c.529.249.123.282.123.282a5.093,5.093,0,0,0-1.165,1.048c-.734.835-1.086,1.29-1.2,1.44-.011.021-.024.045-.033.061C257.981,375.815,257.981,375.832,257.981,375.863Z" transform="translate(-241.422 -346.302)" fill="#216988"/>
      <path id="XMLID_6635_" d="M183.851,170c.359-.257.346,3.374,1.835,4.811.194.188.4.365.609.535.168.135.34.267.52.387a5.749,5.749,0,0,0,1.083.572,5.059,5.059,0,0,0,1.053.287,5.225,5.225,0,0,0,1.334.038,5.111,5.111,0,0,0,1.048-.217,5.4,5.4,0,0,0,1.073-.484,6.9,6.9,0,0,0,.842-.6c.091-.073.185-.143.272-.22q.167-.147.327-.3c1.488-1.437,1.475-5.068,1.835-4.811.436.293.788-.035,1.039-.552a4.939,4.939,0,0,0,.411-1.513c.072-.686-.128-1.084-.4-1.122-.007.01-.013.026-.02.028-.611.178-.734.781-.893.653-.36-.29-2.914-1.14-4.922-2.2-2.388-1.255-2.883-1.64-4.243-1.794l-1.637,1.429c-1.36,1.129-1.505,2.592-1.656,2.294-.187-.369-.361-.276-.488-.416-.306-.039-.554.372-.475,1.125a4.943,4.943,0,0,0,.409,1.511C183.062,169.967,183.414,170.3,183.851,170Z" transform="translate(-173.311 -158.076)" fill="#fcd4b5"/>
      <path id="XMLID_6634_" d="M185.96,117.805c.151.3.3-1.165,1.656-2.294l1.637-1.429c1.36.154,1.855.539,4.243,1.794,2.008,1.056,4.562,1.906,4.922,2.2.159.128.282-.475.893-.653.007,0,.013-.017.02-.028a9.3,9.3,0,0,0-1-5.822c-1.638-2.729-6.256-3.849-9.489-2.027-.311.175-.078.279-.878.488-1.663.436-2.694,3.053-2.694,5.593,0,1.262.08,1.627.2,1.765S185.773,117.436,185.96,117.805Z" transform="translate(-175.907 -108.652)" fill="#906a5d"/>
      <path id="XMLID_6633_" d="M191.78,326.233c0-.013-.005-.032-.007-.044l-.553.18c0,.019.008.047.011.069a18.98,18.98,0,0,0,.459,1.89c.071-.529.154-1.024.23-1.4C191.85,326.627,191.8,326.392,191.78,326.233Z" transform="translate(-181.271 -304.654)" fill="#021a21"/>
      <path id="XMLID_6632_" d="M315.894,326.189c0,.015-.006.037-.008.053-.024.174-.078.431-.159.763.076.391.157.886.226,1.409a20.081,20.081,0,0,0,.482-1.968c0-.025.01-.056.012-.078Z" transform="translate(-293.452 -304.654)" fill="#021a21"/>
      <path id="XMLID_6631_" d="M210.337,387.441a1.6,1.6,0,0,1-.1.138c-.809-.947-3.132-7.556-4.632-12.353a4.816,4.816,0,0,0-.518.32c.434,1.394.935,2.938,1.455,4.465,1.738,5.108,2.672,7.07,3.2,7.825h.994c.526-.755,1.459-2.717,3.2-7.825.517-1.52,1.016-3.056,1.449-4.445a5.25,5.25,0,0,0-.517-.324C213.42,379.854,211.223,386.126,210.337,387.441Z" transform="translate(-193.764 -348.836)" fill="#021a21"/>
      <path id="XMLID_6630_" d="M198.247,316.06l-.341.154c-.529.249-.047.316-.047.316a5.185,5.185,0,0,1,1.089,1.015c.786.893,1.272,1.356,1.394,1.47l.033.031s-.582-1.284-1.21-2.5c-.023-.052-.071-.14-.141-.26l-.052-.089-.035-.057c-.026-.044-.052-.088-.079-.13h0c-.564-.915-1.733-2.667-2.491-3.628a2.676,2.676,0,0,1-.312-2.482l.279-.5c-.015.005-.033.015-.048.021a2.957,2.957,0,0,0-1.566,1.528,2.646,2.646,0,0,0-.121.33c-.036.127-.077.3-.119.516-.077.381-.159.876-.23,1.4-.216,1.605-.33,3.514.128,3.452a2.076,2.076,0,0,0,.774-.416,4.819,4.819,0,0,1,.518-.319A2.58,2.58,0,0,1,198.247,316.06Z" transform="translate(-183.829 -289.533)" fill="#e0e0e0"/>
      <path id="XMLID_6629_" d="M263.454,311.286a2.656,2.656,0,0,0-.123-.336,2.96,2.96,0,0,0-1.55-1.517c-.02-.008-.043-.019-.063-.026l.279.5a2.676,2.676,0,0,1-.312,2.482c-.758.961-1.928,2.713-2.491,3.628h0c-.027.042-.053.087-.079.13l-.035.057-.052.089c-.07.12-.118.208-.141.26a17.371,17.371,0,0,0-1.025,2.5l.045-.061c.112-.15.464-.605,1.2-1.44a5.093,5.093,0,0,1,1.165-1.048s.406-.033-.123-.282l-.341-.154a2.573,2.573,0,0,1,2.609-.121,5.259,5.259,0,0,1,.517.324,1.967,1.967,0,0,0,.745.4c.45.062.348-1.778.14-3.364-.069-.524-.149-1.019-.226-1.409C263.542,311.637,263.495,311.43,263.454,311.286Z" transform="translate(-241.314 -289.533)" fill="#e0e0e0"/>
      <path id="XMLID_6628_" d="M238.011,502.6h-2.65v.216q.814.067,1.642.081h.821c.714-.012,1.423-.047,2.121-.118v-.18Z" transform="translate(-221.041 -463.603)" fill="#e0e0e0"/>
      <path id="XMLID_6627_" d="M93.736,355.668a.727.727,0,0,0-.308.036c-.884.321-1.783,2.858-2.239,5.651-.116.709-.291,1.793-.476,2.968a24.762,24.762,0,0,0,6.237,4.025c-.039-2.83-.2-7.538-.666-8.753C95.743,358.2,94.814,355.746,93.736,355.668Z" transform="translate(-90.713 -331.212)" fill="#1d6182"/>
      <path id="XMLID_6626_" d="M365.3,364.242c-.183-1.157-.355-2.222-.469-2.922-.456-2.793-1.355-5.33-2.239-5.651a.742.742,0,0,0-.2-.041c-1.123-.083-2.1,2.49-2.654,3.931-.469,1.211-.627,5.893-.666,8.725A24.759,24.759,0,0,0,365.3,364.242Z" transform="translate(-332.508 -331.177)" fill="#1d6182"/>
    </g>
  </g>
</svg>
