<svg xmlns="http://www.w3.org/2000/svg" width="32" height="28.784" viewBox="0 0 32 28.784">
  <g id="Layer_2" data-name="Layer 2" transform="translate(0 -0.026)">
    <g id="Ways_of_payment" transform="translate(0 0.026)">
      <path id="Path_75" data-name="Path 75" d="M27.949,6.492l-2.067-3.84a5.12,5.12,0,0,0-6.918-2L8.32,6.409H5.12A5.12,5.12,0,0,0,0,11.529v12.16a5.12,5.12,0,0,0,5.12,5.12H26.88A5.12,5.12,0,0,0,32,23.689V11.529a5.12,5.12,0,0,0-4.051-5.037ZM20.48,3.44a1.875,1.875,0,0,1,.909-.23,1.92,1.92,0,0,1,1.683,1l1.178,2.2h-9.2Zm8.32,20.25a1.92,1.92,0,0,1-1.92,1.92H5.12a1.92,1.92,0,0,1-1.92-1.92V11.529a1.92,1.92,0,0,1,1.92-1.92H26.88a1.92,1.92,0,0,1,1.92,1.92Z" transform="translate(0 -0.026)" fill="#b5b5b5"/>
      <rect id="Rectangle_31" data-name="Rectangle 31" width="19.2" height="3.2" rx="1.6" transform="translate(6.4 12.758)" fill="#b5b5b5"/>
    </g>
  </g>
</svg>
