<svg xmlns="http://www.w3.org/2000/svg" width="31.182" height="31.237" viewBox="0 0 31.182 31.237">
  <path id="_13003354851543238910" data-name="13003354851543238910" d="M20.121,6.568a6.96,6.96,0,0,1,5.5,5.5M20.121,1A12.527,12.527,0,0,1,31.187,12.052M29.795,23.16v4.176a2.784,2.784,0,0,1-3.034,2.784,27.547,27.547,0,0,1-12.012-4.273A27.143,27.143,0,0,1,6.4,17.495,27.547,27.547,0,0,1,2.123,5.426a2.784,2.784,0,0,1,2.77-3.034H9.069a2.784,2.784,0,0,1,2.784,2.394A17.873,17.873,0,0,0,12.827,8.7a2.784,2.784,0,0,1-.626,2.937L10.433,13.4a22.271,22.271,0,0,0,8.352,8.352l1.768-1.768a2.784,2.784,0,0,1,2.937-.626,17.873,17.873,0,0,0,3.911.974,2.784,2.784,0,0,1,2.394,2.826Z" transform="translate(-1.111 0.104)" fill="none" stroke="#000" stroke-linecap="round" stroke-linejoin="round" stroke-width="2"/>
</svg>
